<mxfile host="app.diagrams.net" agent="Mozilla/5.0 (Windows NT 10.0; Win64; x64) AppleWebKit/537.36 (KHTML, like Gecko) Chrome/133.0.0.0 Safari/537.36" version="26.0.16" pages="2">
  <diagram name="high" id="qqjLi4UFNnbQISOZix2g">
    <mxGraphModel dx="1509" dy="777" grid="1" gridSize="10" guides="1" tooltips="1" connect="1" arrows="1" fold="1" page="1" pageScale="1" pageWidth="1600" pageHeight="900" math="0" shadow="0">
      <root>
        <mxCell id="0" />
        <mxCell id="1" parent="0" />
        <mxCell id="E1VSKDTDWRZ0Xt1299cS-12" style="edgeStyle=orthogonalEdgeStyle;rounded=0;orthogonalLoop=1;jettySize=auto;html=1;strokeWidth=3;flowAnimation=1;fillColor=#d5e8d4;strokeColor=#82b366;endArrow=block;endFill=1;" parent="1" source="7u1YklxsswCGPDCw1TKW-9" target="E1VSKDTDWRZ0Xt1299cS-1" edge="1">
          <mxGeometry relative="1" as="geometry" />
        </mxCell>
        <mxCell id="7u1YklxsswCGPDCw1TKW-9" value="" style="aspect=fixed;html=1;dashed=0;whitespace=wrap;verticalLabelPosition=top;verticalAlign=bottom;fillColor=#2875E2;strokeColor=#ffffff;points=[[0.005,0.63,0],[0.1,0.2,0],[0.9,0.2,0],[0.5,0,0],[0.995,0.63,0],[0.72,0.99,0],[0.5,1,0],[0.28,0.99,0]];shape=mxgraph.kubernetes.icon2;kubernetesLabel=1;prIcon=deploy;fontStyle=1;labelPosition=left;align=right;" parent="1" vertex="1">
          <mxGeometry x="705.56" y="600" width="59.38" height="57" as="geometry" />
        </mxCell>
        <mxCell id="7u1YklxsswCGPDCw1TKW-11" value="Grafana" style="shape=image;verticalLabelPosition=top;labelBackgroundColor=default;verticalAlign=bottom;aspect=fixed;imageAspect=0;editableCssRules=.*;image=data:image/svg+xml,PHN2ZyB4bWxuczp4bGluaz0iaHR0cDovL3d3dy53My5vcmcvMTk5OS94bGluayIgeG1sbnM9Imh0dHA6Ly93d3cudzMub3JnLzIwMDAvc3ZnIiB4bWw6c3BhY2U9InByZXNlcnZlIiBzdHlsZT0iZW5hYmxlLWJhY2tncm91bmQ6bmV3IDAgMCAzNTEgMzY1OyIgdmlld0JveD0iOC41IDEuMDAwMDAzODE0Njk3MjY1NiAzMzQuMDM0ODUxMDc0MjE4NzUgMzYyLjk5OTk2OTQ4MjQyMTkiIGhlaWdodD0iMzYyLjk5OTk2OTQ4MjQyMTkiIHdpZHRoPSIzMzQuMDM0ODUxMDc0MjE4NzUiIHk9IjBweCIgeD0iMHB4IiBpZD0iTGF5ZXJfMSIgdmVyc2lvbj0iMS4xIj4mI3hhOzxzdHlsZSB0eXBlPSJ0ZXh0L2NzcyI+JiN4YTsJLnN0MHtmaWxsOnVybCgjU1ZHSURfMV8pO30mI3hhOzwvc3R5bGU+JiN4YTs8ZyBpZD0iTGF5ZXJfMV8xXyI+JiN4YTs8L2c+JiN4YTs8bGluZWFyR3JhZGllbnQgeTI9Ijk5JSIgeDI9IjE3NS41IiB5MT0iMzAlIiB4MT0iMTc1LjUiIGdyYWRpZW50VW5pdHM9InVzZXJTcGFjZU9uVXNlIiBpZD0iU1ZHSURfMV8iPiYjeGE7CTxzdG9wIHN0eWxlPSJzdG9wLWNvbG9yOiNGMDVBMjgiIG9mZnNldD0iMCIvPiYjeGE7CTxzdG9wIHN0eWxlPSJzdG9wLWNvbG9yOiNGQkNBMEEiIG9mZnNldD0iMSIvPiYjeGE7PC9saW5lYXJHcmFkaWVudD4mI3hhOzxwYXRoIGQ9Ik0zNDIsMTYxLjJjLTAuNi02LjEtMS42LTEzLjEtMy42LTIwLjljLTItNy43LTUtMTYuMi05LjQtMjVjLTQuNC04LjgtMTAuMS0xNy45LTE3LjUtMjYuOCYjMTA7JiM5O2MtMi45LTMuNS02LjEtNi45LTkuNS0xMC4yYzUuMS0yMC4zLTYuMi0zNy45LTYuMi0zNy45Yy0xOS41LTEuMi0zMS45LDYuMS0zNi41LDkuNGMtMC44LTAuMy0xLjUtMC43LTIuMy0xJiMxMDsmIzk7Yy0zLjMtMS4zLTYuNy0yLjYtMTAuMy0zLjdjLTMuNS0xLjEtNy4xLTIuMS0xMC44LTNjLTMuNy0wLjktNy40LTEuNi0xMS4yLTIuMmMtMC43LTAuMS0xLjMtMC4yLTItMC4zJiMxMDsmIzk7Yy04LjUtMjcuMi0zMi45LTM4LjYtMzIuOS0zOC42Yy0yNy4zLDE3LjMtMzIuNCw0MS41LTMyLjQsNDEuNXMtMC4xLDAuNS0wLjMsMS40Yy0xLjUsMC40LTMsMC45LTQuNSwxLjNjLTIuMSwwLjYtNC4yLDEuNC02LjIsMi4yJiMxMDsmIzk7Yy0yLjEsMC44LTQuMSwxLjYtNi4yLDIuNWMtNC4xLDEuOC04LjIsMy44LTEyLjIsNmMtMy45LDIuMi03LjcsNC42LTExLjQsNy4xYy0wLjUtMC4yLTEtMC40LTEtMC40Yy0zNy44LTE0LjQtNzEuMywyLjktNzEuMywyLjkmIzEwOyYjOTtjLTMuMSw0MC4yLDE1LjEsNjUuNSwxOC43LDcwLjFjLTAuOSwyLjUtMS43LDUtMi41LDcuNWMtMi44LDkuMS00LjksMTguNC02LjIsMjguMWMtMC4yLDEuNC0wLjQsMi44LTAuNSw0LjImIzEwOyYjOTtDMTguOCwxOTIuNyw4LjUsMjI4LDguNSwyMjhjMjkuMSwzMy41LDYzLjEsMzUuNiw2My4xLDM1LjZjMCwwLDAuMS0wLjEsMC4xLTAuMWM0LjMsNy43LDkuMywxNSwxNC45LDIxLjljMi40LDIuOSw0LjgsNS42LDcuNCw4LjMmIzEwOyYjOTtjLTEwLjYsMzAuNCwxLjUsNTUuNiwxLjUsNTUuNmMzMi40LDEuMiw1My43LTE0LjIsNTguMi0xNy43YzMuMiwxLjEsNi41LDIuMSw5LjgsMi45YzEwLDIuNiwyMC4yLDQuMSwzMC40LDQuNSYjMTA7JiM5O2MyLjUsMC4xLDUuMSwwLjIsNy42LDAuMWwxLjIsMGwwLjgsMGwxLjYsMGwxLjYtMC4xbDAsMC4xYzE1LjMsMjEuOCw0Mi4xLDI0LjksNDIuMSwyNC45YzE5LjEtMjAuMSwyMC4yLTQwLjEsMjAuMi00NC40bDAsMCYjMTA7JiM5O2MwLDAsMC0wLjEsMC0wLjNjMC0wLjQsMC0wLjYsMC0wLjZsMCwwYzAtMC4zLDAtMC42LDAtMC45YzQtMi44LDcuOC01LjgsMTEuNC05LjFjNy42LTYuOSwxNC4zLTE0LjgsMTkuOS0yMy4zJiMxMDsmIzk7YzAuNS0wLjgsMS0xLjYsMS41LTIuNGMyMS42LDEuMiwzNi45LTEzLjQsMzYuOS0xMy40Yy0zLjYtMjIuNS0xNi40LTMzLjUtMTkuMS0zNS42bDAsMGMwLDAtMC4xLTAuMS0wLjMtMC4yJiMxMDsmIzk7Yy0wLjItMC4xLTAuMi0wLjItMC4yLTAuMmMwLDAsMCwwLDAsMGMtMC4xLTAuMS0wLjMtMC4yLTAuNS0wLjNjMC4xLTEuNCwwLjItMi43LDAuMy00LjFjMC4yLTIuNCwwLjItNC45LDAuMi03LjNsMC0xLjhsMC0wLjkmIzEwOyYjOTtsMC0wLjVjMC0wLjYsMC0wLjQsMC0wLjZsLTAuMS0xLjVsLTAuMS0yYzAtMC43LTAuMS0xLjMtMC4yLTEuOWMtMC4xLTAuNi0wLjEtMS4zLTAuMi0xLjlsLTAuMi0xLjlsLTAuMy0xLjkmIzEwOyYjOTtjLTAuNC0yLjUtMC44LTQuOS0xLjQtNy40Yy0yLjMtOS43LTYuMS0xOC45LTExLTI3LjJjLTUtOC4zLTExLjItMTUuNi0xOC4zLTIxLjhjLTctNi4yLTE0LjktMTEuMi0yMy4xLTE0LjkmIzEwOyYjOTtjLTguMy0zLjctMTYuOS02LjEtMjUuNS03LjJjLTQuMy0wLjYtOC42LTAuOC0xMi45LTAuN2wtMS42LDBsLTAuNCwwYy0wLjEsMC0wLjYsMC0wLjUsMGwtMC43LDBsLTEuNiwwLjFjLTAuNiwwLTEuMiwwLjEtMS43LDAuMSYjMTA7JiM5O2MtMi4yLDAuMi00LjQsMC41LTYuNSwwLjljLTguNiwxLjYtMTYuNyw0LjctMjMuOCw5Yy03LjEsNC4zLTEzLjMsOS42LTE4LjMsMTUuNmMtNSw2LTguOSwxMi43LTExLjYsMTkuNmMtMi43LDYuOS00LjIsMTQuMS00LjYsMjEmIzEwOyYjOTtjLTAuMSwxLjctMC4xLDMuNS0wLjEsNS4yYzAsMC40LDAsMC45LDAsMS4zbDAuMSwxLjRjMC4xLDAuOCwwLjEsMS43LDAuMiwyLjVjMC4zLDMuNSwxLDYuOSwxLjksMTAuMWMxLjksNi41LDQuOSwxMi40LDguNiwxNy40JiMxMDsmIzk7YzMuNyw1LDguMiw5LjEsMTIuOSwxMi40YzQuNywzLjIsOS44LDUuNSwxNC44LDdjNSwxLjUsMTAsMi4xLDE0LjcsMi4xYzAuNiwwLDEuMiwwLDEuNywwYzAuMywwLDAuNiwwLDAuOSwwYzAuMywwLDAuNiwwLDAuOS0wLjEmIzEwOyYjOTtjMC41LDAsMS0wLjEsMS41LTAuMWMwLjEsMCwwLjMsMCwwLjQtMC4xbDAuNS0wLjFjMC4zLDAsMC42LTAuMSwwLjktMC4xYzAuNi0wLjEsMS4xLTAuMiwxLjctMC4zYzAuNi0wLjEsMS4xLTAuMiwxLjYtMC40JiMxMDsmIzk7YzEuMS0wLjIsMi4xLTAuNiwzLjEtMC45YzItMC43LDQtMS41LDUuNy0yLjRjMS44LTAuOSwzLjQtMiw1LTNjMC40LTAuMywwLjktMC42LDEuMy0xYzEuNi0xLjMsMS45LTMuNywwLjYtNS4zJiMxMDsmIzk7Yy0xLjEtMS40LTMuMS0xLjgtNC43LTAuOWMtMC40LDAuMi0wLjgsMC40LTEuMiwwLjZjLTEuNCwwLjctMi44LDEuMy00LjMsMS44Yy0xLjUsMC41LTMuMSwwLjktNC43LDEuMmMtMC44LDAuMS0xLjYsMC4yLTIuNSwwLjMmIzEwOyYjOTtjLTAuNCwwLTAuOCwwLjEtMS4zLDAuMWMtMC40LDAtMC45LDAtMS4yLDBjLTAuNCwwLTAuOCwwLTEuMiwwYy0wLjUsMC0xLDAtMS41LTAuMWMwLDAtMC4zLDAtMC4xLDBsLTAuMiwwbC0wLjMsMCYjMTA7JiM5O2MtMC4yLDAtMC41LDAtMC43LTAuMWMtMC41LTAuMS0wLjktMC4xLTEuNC0wLjJjLTMuNy0wLjUtNy40LTEuNi0xMC45LTMuMmMtMy42LTEuNi03LTMuOC0xMC4xLTYuNmMtMy4xLTIuOC01LjgtNi4xLTcuOS05LjkmIzEwOyYjOTtjLTIuMS0zLjgtMy42LTgtNC4zLTEyLjRjLTAuMy0yLjItMC41LTQuNS0wLjQtNi43YzAtMC42LDAuMS0xLjIsMC4xLTEuOGMwLDAuMiwwLTAuMSwwLTAuMWwwLTAuMmwwLTAuNWMwLTAuMywwLjEtMC42LDAuMS0wLjkmIzEwOyYjOTtjMC4xLTEuMiwwLjMtMi40LDAuNS0zLjZjMS43LTkuNiw2LjUtMTksMTMuOS0yNi4xYzEuOS0xLjgsMy45LTMuNCw2LTQuOWMyLjEtMS41LDQuNC0yLjgsNi44LTMuOWMyLjQtMS4xLDQuOC0yLDcuNC0yLjcmIzEwOyYjOTtjMi41LTAuNyw1LjEtMS4xLDcuOC0xLjRjMS4zLTAuMSwyLjYtMC4yLDQtMC4yYzAuNCwwLDAuNiwwLDAuOSwwbDEuMSwwbDAuNywwYzAuMywwLDAsMCwwLjEsMGwwLjMsMGwxLjEsMC4xJiMxMDsmIzk7YzIuOSwwLjIsNS43LDAuNiw4LjUsMS4zYzUuNiwxLjIsMTEuMSwzLjMsMTYuMiw2LjFjMTAuMiw1LjcsMTguOSwxNC41LDI0LjIsMjUuMWMyLjcsNS4zLDQuNiwxMSw1LjUsMTYuOWMwLjIsMS41LDAuNCwzLDAuNSw0LjUmIzEwOyYjOTtsMC4xLDEuMWwwLjEsMS4xYzAsMC40LDAsMC44LDAsMS4xYzAsMC40LDAsMC44LDAsMS4xbDAsMWwwLDEuMWMwLDAuNy0wLjEsMS45LTAuMSwyLjZjLTAuMSwxLjYtMC4zLDMuMy0wLjUsNC45JiMxMDsmIzk7Yy0wLjIsMS42LTAuNSwzLjItMC44LDQuOGMtMC4zLDEuNi0wLjcsMy4yLTEuMSw0LjdjLTAuOCwzLjEtMS44LDYuMi0zLDkuM2MtMi40LDYtNS42LDExLjgtOS40LDE3LjEmIzEwOyYjOTtjLTcuNywxMC42LTE4LjIsMTkuMi0zMC4yLDI0LjdjLTYsMi43LTEyLjMsNC43LTE4LjgsNS43Yy0zLjIsMC42LTYuNSwwLjktOS44LDFsLTAuNiwwbC0wLjUsMGwtMS4xLDBsLTEuNiwwbC0wLjgsMCYjMTA7JiM5O2MwLjQsMC0wLjEsMC0wLjEsMGwtMC4zLDBjLTEuOCwwLTMuNS0wLjEtNS4zLTAuM2MtNy0wLjUtMTMuOS0xLjgtMjAuNy0zLjdjLTYuNy0xLjktMTMuMi00LjYtMTkuNC03LjgmIzEwOyYjOTtjLTEyLjMtNi42LTIzLjQtMTUuNi0zMi0yNi41Yy00LjMtNS40LTguMS0xMS4zLTExLjItMTcuNGMtMy4xLTYuMS01LjYtMTIuNi03LjQtMTkuMWMtMS44LTYuNi0yLjktMTMuMy0zLjQtMjAuMWwtMC4xLTEuM2wwLTAuMyYjMTA7JiM5O2wwLTAuM2wwLTAuNmwwLTEuMWwwLTAuM2wwLTAuNGwwLTAuOGwwLTEuNmwwLTAuM2MwLDAsMCwwLjEsMC0wLjFsMC0wLjZjMC0wLjgsMC0xLjcsMC0yLjVjMC4xLTMuMywwLjQtNi44LDAuOC0xMC4yJiMxMDsmIzk7YzAuNC0zLjQsMS02LjksMS43LTEwLjNjMC43LTMuNCwxLjUtNi44LDIuNS0xMC4yYzEuOS02LjcsNC4zLTEzLjIsNy4xLTE5LjNjNS43LTEyLjIsMTMuMS0yMy4xLDIyLTMxLjhjMi4yLTIuMiw0LjUtNC4yLDYuOS02LjImIzEwOyYjOTtjMi40LTEuOSw0LjktMy43LDcuNS01LjRjMi41LTEuNyw1LjItMy4yLDcuOS00LjZjMS4zLTAuNywyLjctMS40LDQuMS0yYzAuNy0wLjMsMS40LTAuNiwyLjEtMC45YzAuNy0wLjMsMS40LTAuNiwyLjEtMC45JiMxMDsmIzk7YzIuOC0xLjIsNS43LTIuMiw4LjctMy4xYzAuNy0wLjIsMS41LTAuNCwyLjItMC43YzAuNy0wLjIsMS41LTAuNCwyLjItMC42YzEuNS0wLjQsMy0wLjgsNC41LTEuMWMwLjctMC4yLDEuNS0wLjMsMi4zLTAuNSYjMTA7JiM5O2MwLjgtMC4yLDEuNS0wLjMsMi4zLTAuNWMwLjgtMC4xLDEuNS0wLjMsMi4zLTAuNGwxLjEtMC4ybDEuMi0wLjJjMC44LTAuMSwxLjUtMC4yLDIuMy0wLjNjMC45LTAuMSwxLjctMC4yLDIuNi0wLjMmIzEwOyYjOTtjMC43LTAuMSwxLjktMC4yLDIuNi0wLjNjMC41LTAuMSwxLjEtMC4xLDEuNi0wLjJsMS4xLTAuMWwwLjUtMC4xbDAuNiwwYzAuOS0wLjEsMS43LTAuMSwyLjYtMC4ybDEuMy0wLjFjMCwwLDAuNSwwLDAuMSwwbDAuMywwJiMxMDsmIzk7bDAuNiwwYzAuNywwLDEuNS0wLjEsMi4yLTAuMWMyLjktMC4xLDUuOS0wLjEsOC44LDBjNS44LDAuMiwxMS41LDAuOSwxNywxLjljMTEuMSwyLjEsMjEuNSw1LjYsMzEsMTAuMyYjMTA7JiM5O2M5LjUsNC42LDE3LjksMTAuMywyNS4zLDE2LjVjMC41LDAuNCwwLjksMC44LDEuNCwxLjJjMC40LDAuNCwwLjksMC44LDEuMywxLjJjMC45LDAuOCwxLjcsMS42LDIuNiwyLjRjMC45LDAuOCwxLjcsMS42LDIuNSwyLjQmIzEwOyYjOTtjMC44LDAuOCwxLjYsMS42LDIuNCwyLjVjMy4xLDMuMyw2LDYuNiw4LjYsMTBjNS4yLDYuNyw5LjQsMTMuNSwxMi43LDE5LjljMC4yLDAuNCwwLjQsMC44LDAuNiwxLjJjMC4yLDAuNCwwLjQsMC44LDAuNiwxLjImIzEwOyYjOTtjMC40LDAuOCwwLjgsMS42LDEuMSwyLjRjMC40LDAuOCwwLjcsMS41LDEuMSwyLjNjMC4zLDAuOCwwLjcsMS41LDEsMi4zYzEuMiwzLDIuNCw1LjksMy4zLDguNmMxLjUsNC40LDIuNiw4LjMsMy41LDExLjcmIzEwOyYjOTtjMC4zLDEuNCwxLjYsMi4zLDMsMi4xYzEuNS0wLjEsMi42LTEuMywyLjYtMi44QzM0Mi42LDE3MC40LDM0Mi41LDE2Ni4xLDM0MiwxNjEuMnoiIGNsYXNzPSJzdDAiLz4mI3hhOzwvc3ZnPg==;labelPosition=left;align=right;fontStyle=1" parent="1" vertex="1">
          <mxGeometry x="231.89" y="145" width="46.01" height="50" as="geometry" />
        </mxCell>
        <mxCell id="E1VSKDTDWRZ0Xt1299cS-17" style="edgeStyle=orthogonalEdgeStyle;rounded=0;orthogonalLoop=1;jettySize=auto;html=1;entryX=0.5;entryY=1;entryDx=0;entryDy=0;flowAnimation=1;strokeWidth=3;endArrow=block;endFill=1;startArrow=block;startFill=1;fillColor=#ffe6cc;strokeColor=#d79b00;" parent="1" source="7u1YklxsswCGPDCw1TKW-12" target="7u1YklxsswCGPDCw1TKW-11" edge="1">
          <mxGeometry relative="1" as="geometry" />
        </mxCell>
        <mxCell id="E1VSKDTDWRZ0Xt1299cS-18" style="edgeStyle=orthogonalEdgeStyle;rounded=0;orthogonalLoop=1;jettySize=auto;html=1;entryX=0.5;entryY=0;entryDx=0;entryDy=0;endArrow=block;endFill=1;startArrow=none;startFill=0;flowAnimation=1;strokeWidth=3;fillColor=#ffe6cc;strokeColor=#d79b00;" parent="1" source="7u1YklxsswCGPDCw1TKW-12" target="E1VSKDTDWRZ0Xt1299cS-7" edge="1">
          <mxGeometry relative="1" as="geometry">
            <Array as="points">
              <mxPoint x="255.25" y="520" />
              <mxPoint x="255.25" y="520" />
            </Array>
          </mxGeometry>
        </mxCell>
        <mxCell id="7u1YklxsswCGPDCw1TKW-12" value="Prometheus" style="shape=image;verticalLabelPosition=top;labelBackgroundColor=default;verticalAlign=bottom;aspect=fixed;imageAspect=0;image=data:image/png,iVBORw0KGgoAAAANSUhEUgAAAOAAAADhCAMAAADmr0l2AAAAkFBMVEXaTjH////ZSSnaTC765uLYPhbkgnD99PLaSy3dW0HZRSPZRyfZRCHYQR3YPxnYQh/++fjtsqb11dDpn5P77er43djzysLeYkncVTjwvbP219Hyxb3lh3b54t3dXkT0zcbgbljieGPomInsqp7jfmvfaFHqopbnkoLvtqzpm43hc13traHmjXzieWTfZU7XOQy3CafTAAAQcklEQVR4nN1daWOqvBIGYmtMQFBxrda9WvX0/P9/d1kUWRLIZEKP730+9MPpKfKYZPaZWHbrCMLOeDIf7Ee35fJ2OEQ/T6P9YD5ZrMKg/U+32nx4OJ7vl5vPGet7LmPciUBp9INzxlyvz6zPzftoPg7bfIe2CHaH1+XGimlRQiwJCKFORNX6eb8O22LZBsHuZLexmBtRkzEr8aSOy+jx9tEGSdMEg8V+wzxlbnma3Hd/voZdwy9klGB3fZp6LgVzy0BZv2d4IQ0SXJx60YnTZ/dYSDZbrs29lSmC4+9Zn8P3pYSjN9sNDb2YEYLBxx+XGWJ358i8zdzIcTRAMNz3PMckuxTU632vXoBg5zQzu3hPEEaX439McLz8a+rkCSnyty3yMKIIjpeMA9+YMSBHxzugKCIIdk4cSs/t7QdgReIwzEbVJtj9doD0LOpcA3sH/asInN20lb8uwTlctDjTaCE6ctO7DowONF0rPYKLrQd+T2car8LA1eEX7W7/OPk1gsGIw/UeJZ34bw/aGpO6Jx3Nr0Fw3dNZBZ7alw5CqTDy8QsEg5OnY1C7X+lf/9XnF+1T7x0sbKAEhz9ah4hMUxnRecMQjPZBD7qIQIJfmv5Q//5eWILRSdy1SDC8eJqvdbk/oYvaogncKUjtQwiuexpKOkE/82A1YhllONa8HYJXbXedHrOHbNAuf2zxjVogGNzguv0Bd5A9RsdSq8L/oyxNVQmGG6gb8ASxOtlzPnwTBC3+2al5WQ2C4xnim6fb54M6lhn30bEUA1NqBIcW5uiwfe5RW0PRDcrVNKISwbmW8ZLBXeSedda0tisg/b30hYEEz/riJYGT93RC6QoS2oM911cRpgoEr0h+dFp43B8JQ8LOR+AHuScTBK/YPcWXhed99MX/zfsYS36DYthIcA/+1DLYV+GBwUy4TpGu1NCR/g1LcIDmZ7nn4iO/RRo1XuaphijzmtawgaAJmVcmuBI8k8zCGvFTB/9L/OZqBOeuAbXsl21jgZh5m0TGhJ6r4tVri1qCQxP8IulRemzVXHO28T9r+mJvtc5FHcEx2KwiIougQrDbKz+Xxy6edsDNrYu31RAMe9BDz0eTS7/ypfQrVmNZXPJ3G0EwWoaaLJScYLABS20S+X3zStysvyg/elWSoyzx0b+0/RXak3tPcoJLjc/zQsHBfat6NkW3NzmBKIuCb+AErzoK0It340d5fapf77wgT9z0kGpv0fgR0lCUjOBaa7+krvuu8LdkVg1Id/MZCjJLjXFdKZqgoosaCHYqgk4JPPkig4JJQn8Ezz/x8h/Z9gJjNBFaOem1BC96Dvzdri4oOueP4Pn5DfIQQh1UuIZ+ijMXYoJfmpET5z39+2NuCbnIWswtMull74IyK5jY7hYSHOqehodntM59QbmQWv4rzJaQZW6rzFNURF94DEUEuzpmfUrwIcxyT2DC2MlTFfqZHaCvCBPkg3f1BE/aH5StRk7kc3GA77GLSS87O0Oka8ZFp11AcKL/RWbCupM7YuLD/1gu55D9U1cvvZ37+HP1c6oEg5l+CM3LKj6yTK5QiEZY3c85uz7/7R0ZUiRe1aaoEtwhDAo/+4DzYxuwbzFBe5ouF8vpL7R7zd+bCS4Q2ojMngv0WAxfFp9N92jBzsGHvd2KJC0TDC6IbcJzqujnvtGpLImQxtCyzGEC/RKFO0hF3ZcJnk0ZhHdjjP7I6luCRKQUQ24oczSBWw7RlAiG4pieIlhute7vKrRjUmzjNfaK3jg+NcNKzm+JoDCkp4rCat2z8ZV4xROJX19yFkc4XR+BH4qfUiTYQWXvWCFXkB4nJi/emftx50RxB4dYVRhZbMXixCLBG8qgZ4XgS+K1U7mrnXgUld/rW1EPOAWxVSSIUREVmyWRMlI/NMLKKsrdBB1MKVSKovFbIPiOIliSJ4k5KghXZIijh1VXAyUFEtBjftvnCQ5xz/aKPvXEE1oWTwSRve1XQoo4OZ6+SH4J8wRx/ljOjEmwYDJXKfd5vFrUc0WXKRSCJDmCK1yZFSsFtjrEotPaAsgbJ0TwH8Dx5gryoeYcwSWuhMUvLUZ3RsTOfIZvTqcCOwdvzuRl85OgZrFx9tBy8Cz4pFZ9BeuViX0pfCEGe+rCJ0GkEeFeS68ZbJrKID5csSG3RldD5bLmGcFqygdIsOI1bBsW0F77TJy9xDsVTqaeMoJz3M53DpXXvDRV6oyZKMZga6dCc3hajRnBC052sarJIn75HDq8mllLgQwg5q2qB8EFMmQ30+jcCGhfUtu6RuvCLJDwIHjCHexSLYwiiCSkaKCsNDsyD4JIN0W21+rxacnWHa8L+2GB4BoXcyWODj/7IsispQiQMv2ptu4EkVZMTWCiDrdPaUMS2ql4WDMpQawJ7+m1+O2P0l+N0daMM84RLGedgagG69Qwr/H3j1gxcy/DTQniQhW6O9QebuW/26P36CXICKLNNI2mqRidGuUyxvbI3IOYCUGsDJUKwwZ0ZXmLGOjgTGoHJgSRjoQsgdSMuiozpGB/5NMTgtoZ3RQVT0kZdc0PZ6y5RpJa8ZhgB5m1ctHd/CKM8fbo+k4Q+V09CnkMAx9eS1KTMUHkbtc/gvVAG9xJas4qFybBIXHL0UAq57jsopsQxFUY3SvwWgCyqiSCO0wIYhvCmGojGBBnPMFrQhCpBQltafwbopzljlgTWugACJW7BDiMDaRhYoLBJ7L1SitaoQCsbIjTq2FEEPscBmioBSHEJ+zddURQr7Y3R1CpjU8DWB8nfrdBRPCKJFitvXkdgnwXEcT2Rddlqf81QbqNCG6RFpFexFABWAvLimMpgRVMkd9TawSzajAEwVlooY32mlIfHAxsUctdWWht88pn0OoPLXjjbAn6/nwDDOjBSMRb6NkLrSl6vCUT1xNbmI6hBK2ZasiMXgI+svAB1mnzu2phboCgc7JG6I3gtOQuob96K9b01g2d5fAlbVFYYGvwE4Ib6x2tTctt5IZgwJCJp4FZyOID69mRZRgrI7ODehbWFG0tLjo3MzvI+sFr02pNpAmYOIIxkAGLGNLmFhTwQzRSYJ0JK3FKzPOboOss7jBA0KodRaAJUzvUCEFBoRoWpqZ3GTmDlqgyGQkTZkyKjRGCmlUIUgT4uuYH8Howxl/D+QlUj1gRAEvGdZlsuGSlwQOHmkouQpkP8PB6EFt0+DHazpgvHFLJjVrceyEF4jCPzbajj5Wy4IhsUfU6yqQapjs+n6a+x8pFHqWOIRzCSgkJjbh51p+IW6xy1c1UerG+lP/zM1XdHe4Pnw4r3OzSr28hAKHQYkTjD5oe9uvnMVcXsfQA8eidvCTpjue7Dem7jy+bUAOXQ6TIKucId/vOcbmfdAqmUqBex+bcLEDns1tJs4TD6x/i+slSOjWVdSCEcZ87odx3Z7frUHC71kLdz+BfFqC2VtinEp2I+S25ZqlvyOa+uNxn1mb3IVM9gPJrNgDFReVFd93F+bRxjISAv/nmdl7UVL9B4qX+ByiyTetFZWjiFHYbLwkT6xAx+kOrC8lNvLVStAWDZPijGO7KAlXitVXUBMEAYMXF2SVYfpCZuu9JG6B6fPoTADO8/34JBxA/KnJULdhftOK8QwDLqSU5eliVRSvxFwBGoFwRO8PrZCrTMH4VHZij7w7hlU6EG7M5NXAArQax4konaL+lUccICGAXZ1qrBq7LlLRt/gJARomVNv1FBNfAHC8h/8qeuQGXIm5zjwiG0DSO01YBZQPm0Gx7PBBLq2bbbyUZ0YQQOpI+6ciJq+7h1d/sH6j7YAMN5if3XMQE4ZUkVKcnGYkdONadtAPEBEN4JQm//LZBoxEKTto2dXuXVG5CMIk1/KLRdF6UdveZeJpnW+ho3NeUtr4nBHXmXkqH6raBUOsig3lGsKuTQ6OzlhpCBPyOOhUX/NkBqtcm5Ezffwk/Oq93vwwJ04VNnF+CVobvPrjUTB/9K+KeSrhPQkC3sr0cHjHcO0Hs/ODXw6OC7jGN5P9uj3rdIkH8xL3XQlYh+CCI72V7LfiTEkH8GKWXAs2imxlB2Y1dNeBvvwS4t/PM1WYE40F2MLCvsPM7ADuscWdkmSC86blhcqFBgK/ayFVePQmCG01+jyBYS+eqdnLTKaHjdV+XYD42nSMYAoMCr0swf9NTfkIscKbFyxIsjH7OEwQq+5cl6OeDmoUpzTCf4lUJOhfZlGZ7BZqj9KoEi/PMi5PSQYL0RQmWCsiLBEEh4BclWLosr3RbAaSK6DUJlgeBlgh2AcXgL0mQOKVgZvnGEEDx4UsS9Mst05VLbdSHXL8iwWrFZ4XgWFlVvCLBauKyeu+S8s11L0hQMGpYcDWYquf7egQJr9bRCgiqXjvxegRFl1iJbq/7VlOG9PhbyRfFik/h9R0igqpl+/S1ki/iwgHhDZJjA3eY/z7Ec1/Ed4BCyoZfBZKreCW3uB7+c4Fu5yiu+5AQ1EqK/0tIL/yW3aQ85v+tdJO0Z0V6F/ZZM2NIkND7VE86tUd+m/lJS5SSHhJa/IT3tzYRDLQEDVt3Uejo8HNq7neSE7S7R42MmossDwIXr1oNpYE1BO2OxoW1ulPhH9CwMQiva8epIwjwDTMw5BCyDzhBr7Z4tZagPQErC2y/OXwCglfv1NQTtD+gVYySLlFlgAcU+Q1OWwNBew4tlGaoknzwHaD9pkacJoJghriBsdA5R15jeXwjQXsO26XlexZhAF6E4jePHWwmaM9dEMN6oVYP4CRJX6FRTIEgUNLQjb6YgbVRNchPdYKRtoDsHP2pxqCLB8mbUg+VEkF7PAN8tUR64VcDupBSHUrUhp2pEbQ7PwAFXHs5bQ0Uo3npZ/QUjV5FgpFvAfh0X0tVQJoD2VF1l6gStIMdQCGKIrBNWADMQu9d+SIkZYLRN6xeHE4c8DTAsXpJLoEYEwCC9kL9IBIHuIYLddeMzyDfHoSg3X3vKw9TYqBG2A/13eFdQA0pIIK2fXaU9YV3Uz4nwbfy+abQK3SABO3xRlmasqni4ItVC8/UJhjXlaruJuqfFHZTOOKquyJ6IPgaOTjBSNb4qhuKWaOGNwr2PWXJ5fY0JrVqELTtK1U1Ggnzdgu58b0aMWVXxeEjHStei6C9WnrqUt3d7MeiVxsPLkzZTyHeRS8gqUcwMvw/lfdpJPn4dHlePweIBeHifDty5cNsEXem66LoErSDqwVwEyl3fW5NL9vD+/byE62qC/HAGP/W9jG1CUZq/4sAoxmUUseJfgAnUjg7RK8pgmDkRO1I64lSzpao+S4oghHF0Ru8/1sdhP+9ISeDIAnGN7H23JaywdSdndATF9AEI4rnjddCA6nTn14NDJQwQDDCcOmYXUbqssPEyDQJMwQji3Lw01fXa/UgvP+5NzU5yhRBO7a7fgC6W4bIKvjcGRw5ZJBgpPwXow3zEXc8O65//B5qXjwthlGCEYLO/OB4Lpwkoczj24HQasXANMEYwWJ/mDG3MslZzo27bLb9GrYxo6YNgjGC8fx72+OMcYdKc36EOvH/6F1O87HRfZlDWwQTdDvr8+5w7Fms77kRkwiOE/9kruv1fdI7Hk7XSactbglaJXhHN1wtJvPzfhRhuYx/7gfzyXjVLrM7/gcaCCATjDg2mAAAAABJRU5ErkJggg==;labelPosition=left;align=right;fontStyle=1" parent="1" vertex="1">
          <mxGeometry x="230.5" y="375" width="49.28" height="49.5" as="geometry" />
        </mxCell>
        <mxCell id="E1VSKDTDWRZ0Xt1299cS-10" style="edgeStyle=orthogonalEdgeStyle;rounded=0;orthogonalLoop=1;jettySize=auto;html=1;curved=1;flowAnimation=1;endArrow=block;endFill=1;strokeWidth=3;fillColor=#dae8fc;strokeColor=#6c8ebf;" parent="1" source="E1VSKDTDWRZ0Xt1299cS-1" target="E1VSKDTDWRZ0Xt1299cS-3" edge="1">
          <mxGeometry relative="1" as="geometry" />
        </mxCell>
        <mxCell id="E1VSKDTDWRZ0Xt1299cS-11" style="edgeStyle=orthogonalEdgeStyle;rounded=0;orthogonalLoop=1;jettySize=auto;html=1;curved=1;flowAnimation=1;endArrow=block;endFill=1;strokeWidth=3;fillColor=#dae8fc;strokeColor=#6c8ebf;" parent="1" source="E1VSKDTDWRZ0Xt1299cS-1" target="E1VSKDTDWRZ0Xt1299cS-4" edge="1">
          <mxGeometry relative="1" as="geometry" />
        </mxCell>
        <mxCell id="E1VSKDTDWRZ0Xt1299cS-13" style="edgeStyle=orthogonalEdgeStyle;rounded=0;orthogonalLoop=1;jettySize=auto;html=1;curved=1;flowAnimation=1;endArrow=block;endFill=1;strokeWidth=3;fillColor=#d5e8d4;strokeColor=#82b366;" parent="1" source="E1VSKDTDWRZ0Xt1299cS-1" target="E1VSKDTDWRZ0Xt1299cS-5" edge="1">
          <mxGeometry relative="1" as="geometry" />
        </mxCell>
        <mxCell id="E1VSKDTDWRZ0Xt1299cS-16" style="edgeStyle=orthogonalEdgeStyle;rounded=0;orthogonalLoop=1;jettySize=auto;html=1;entryX=1;entryY=0.5;entryDx=0;entryDy=0;strokeWidth=3;endArrow=block;endFill=1;startArrow=block;startFill=1;flowAnimation=1;fillColor=#ffe6cc;strokeColor=#d79b00;" parent="1" source="E1VSKDTDWRZ0Xt1299cS-1" target="7u1YklxsswCGPDCw1TKW-12" edge="1">
          <mxGeometry relative="1" as="geometry" />
        </mxCell>
        <mxCell id="E1VSKDTDWRZ0Xt1299cS-1" value="" style="aspect=fixed;html=1;dashed=0;whitespace=wrap;verticalLabelPosition=bottom;verticalAlign=top;fillColor=#2875E2;strokeColor=#ffffff;points=[[0.005,0.63,0],[0.1,0.2,0],[0.9,0.2,0],[0.5,0,0],[0.995,0.63,0],[0.72,0.99,0],[0.5,1,0],[0.28,0.99,0]];shape=mxgraph.kubernetes.icon2;kubernetesLabel=1;prIcon=ds;labelPosition=left;align=right;" parent="1" vertex="1">
          <mxGeometry x="704" y="370" width="62.5" height="60" as="geometry" />
        </mxCell>
        <mxCell id="E1VSKDTDWRZ0Xt1299cS-9" style="edgeStyle=orthogonalEdgeStyle;rounded=0;orthogonalLoop=1;jettySize=auto;html=1;startArrow=block;startFill=1;flowAnimation=1;endArrow=block;endFill=1;strokeWidth=3;fillColor=#dae8fc;strokeColor=#6c8ebf;" parent="1" source="E1VSKDTDWRZ0Xt1299cS-2" target="E1VSKDTDWRZ0Xt1299cS-1" edge="1">
          <mxGeometry relative="1" as="geometry" />
        </mxCell>
        <mxCell id="E1VSKDTDWRZ0Xt1299cS-2" value="" style="aspect=fixed;html=1;dashed=0;whitespace=wrap;verticalLabelPosition=bottom;verticalAlign=top;fillColor=#2875E2;strokeColor=#ffffff;points=[[0.005,0.63,0],[0.1,0.2,0],[0.9,0.2,0],[0.5,0,0],[0.995,0.63,0],[0.72,0.99,0],[0.5,1,0],[0.28,0.99,0]];shape=mxgraph.kubernetes.icon2;kubernetesLabel=1;prIcon=cm;" parent="1" vertex="1">
          <mxGeometry x="1215" y="370" width="62.5" height="60" as="geometry" />
        </mxCell>
        <mxCell id="E1VSKDTDWRZ0Xt1299cS-3" value="Endpoint 1" style="outlineConnect=0;fontColor=#232F3E;gradientColor=none;fillColor=#232F3D;strokeColor=none;dashed=0;verticalLabelPosition=top;verticalAlign=bottom;align=center;html=1;fontSize=12;fontStyle=1;aspect=fixed;pointerEvents=1;shape=mxgraph.aws4.traditional_server;labelPosition=center;" parent="1" vertex="1">
          <mxGeometry x="560" y="140" width="40.38" height="70" as="geometry" />
        </mxCell>
        <mxCell id="E1VSKDTDWRZ0Xt1299cS-4" value="Endpoint 2" style="outlineConnect=0;fontColor=#232F3E;gradientColor=none;fillColor=#232F3D;strokeColor=none;dashed=0;verticalLabelPosition=top;verticalAlign=bottom;align=center;html=1;fontSize=12;fontStyle=1;aspect=fixed;pointerEvents=1;shape=mxgraph.aws4.traditional_server;labelPosition=center;" parent="1" vertex="1">
          <mxGeometry x="715.06" y="140" width="40.38" height="70" as="geometry" />
        </mxCell>
        <mxCell id="E1VSKDTDWRZ0Xt1299cS-5" value="Some&lt;div&gt;Random&lt;/div&gt;&lt;div&gt;Endpoint&lt;/div&gt;" style="outlineConnect=0;fontColor=#232F3E;gradientColor=none;fillColor=#232F3D;strokeColor=none;dashed=0;verticalLabelPosition=top;verticalAlign=bottom;align=center;html=1;fontSize=12;fontStyle=1;aspect=fixed;pointerEvents=1;shape=mxgraph.aws4.traditional_server;labelPosition=center;" parent="1" vertex="1">
          <mxGeometry x="874.8100000000001" y="140" width="40.38" height="70" as="geometry" />
        </mxCell>
        <mxCell id="E1VSKDTDWRZ0Xt1299cS-6" value="User" style="outlineConnect=0;fontColor=#232F3E;gradientColor=none;fillColor=#232F3D;strokeColor=none;dashed=0;verticalLabelPosition=bottom;verticalAlign=top;align=center;html=1;fontSize=12;fontStyle=1;aspect=fixed;pointerEvents=1;shape=mxgraph.aws4.user;strokeWidth=3;shadow=0;" parent="1" vertex="1">
          <mxGeometry x="1223" y="605.25" width="46.5" height="46.5" as="geometry" />
        </mxCell>
        <mxCell id="E1VSKDTDWRZ0Xt1299cS-7" value="Alertmanager" style="shape=image;verticalLabelPosition=top;labelBackgroundColor=default;verticalAlign=bottom;aspect=fixed;imageAspect=0;image=data:image/png,iVBORw0KGgoAAAANSUhEUgAAAOAAAADhCAMAAADmr0l2AAAAkFBMVEXaTjH////ZSSnaTC765uLYPhbkgnD99PLaSy3dW0HZRSPZRyfZRCHYQR3YPxnYQh/++fjtsqb11dDpn5P77er43djzysLeYkncVTjwvbP219Hyxb3lh3b54t3dXkT0zcbgbljieGPomInsqp7jfmvfaFHqopbnkoLvtqzpm43hc13traHmjXzieWTfZU7XOQy3CafTAAAQcklEQVR4nN1daWOqvBIGYmtMQFBxrda9WvX0/P9/d1kUWRLIZEKP730+9MPpKfKYZPaZWHbrCMLOeDIf7Ee35fJ2OEQ/T6P9YD5ZrMKg/U+32nx4OJ7vl5vPGet7LmPciUBp9INzxlyvz6zPzftoPg7bfIe2CHaH1+XGimlRQiwJCKFORNX6eb8O22LZBsHuZLexmBtRkzEr8aSOy+jx9tEGSdMEg8V+wzxlbnma3Hd/voZdwy9klGB3fZp6LgVzy0BZv2d4IQ0SXJx60YnTZ/dYSDZbrs29lSmC4+9Zn8P3pYSjN9sNDb2YEYLBxx+XGWJ358i8zdzIcTRAMNz3PMckuxTU632vXoBg5zQzu3hPEEaX439McLz8a+rkCSnyty3yMKIIjpeMA9+YMSBHxzugKCIIdk4cSs/t7QdgReIwzEbVJtj9doD0LOpcA3sH/asInN20lb8uwTlctDjTaCE6ctO7DowONF0rPYKLrQd+T2car8LA1eEX7W7/OPk1gsGIw/UeJZ34bw/aGpO6Jx3Nr0Fw3dNZBZ7alw5CqTDy8QsEg5OnY1C7X+lf/9XnF+1T7x0sbKAEhz9ah4hMUxnRecMQjPZBD7qIQIJfmv5Q//5eWILRSdy1SDC8eJqvdbk/oYvaogncKUjtQwiuexpKOkE/82A1YhllONa8HYJXbXedHrOHbNAuf2zxjVogGNzguv0Bd5A9RsdSq8L/oyxNVQmGG6gb8ASxOtlzPnwTBC3+2al5WQ2C4xnim6fb54M6lhn30bEUA1NqBIcW5uiwfe5RW0PRDcrVNKISwbmW8ZLBXeSedda0tisg/b30hYEEz/riJYGT93RC6QoS2oM911cRpgoEr0h+dFp43B8JQ8LOR+AHuScTBK/YPcWXhed99MX/zfsYS36DYthIcA/+1DLYV+GBwUy4TpGu1NCR/g1LcIDmZ7nn4iO/RRo1XuaphijzmtawgaAJmVcmuBI8k8zCGvFTB/9L/OZqBOeuAbXsl21jgZh5m0TGhJ6r4tVri1qCQxP8IulRemzVXHO28T9r+mJvtc5FHcEx2KwiIougQrDbKz+Xxy6edsDNrYu31RAMe9BDz0eTS7/ypfQrVmNZXPJ3G0EwWoaaLJScYLABS20S+X3zStysvyg/elWSoyzx0b+0/RXak3tPcoJLjc/zQsHBfat6NkW3NzmBKIuCb+AErzoK0It340d5fapf77wgT9z0kGpv0fgR0lCUjOBaa7+krvuu8LdkVg1Id/MZCjJLjXFdKZqgoosaCHYqgk4JPPkig4JJQn8Ezz/x8h/Z9gJjNBFaOem1BC96Dvzdri4oOueP4Pn5DfIQQh1UuIZ+ijMXYoJfmpET5z39+2NuCbnIWswtMull74IyK5jY7hYSHOqehodntM59QbmQWv4rzJaQZW6rzFNURF94DEUEuzpmfUrwIcxyT2DC2MlTFfqZHaCvCBPkg3f1BE/aH5StRk7kc3GA77GLSS87O0Oka8ZFp11AcKL/RWbCupM7YuLD/1gu55D9U1cvvZ37+HP1c6oEg5l+CM3LKj6yTK5QiEZY3c85uz7/7R0ZUiRe1aaoEtwhDAo/+4DzYxuwbzFBe5ouF8vpL7R7zd+bCS4Q2ojMngv0WAxfFp9N92jBzsGHvd2KJC0TDC6IbcJzqujnvtGpLImQxtCyzGEC/RKFO0hF3ZcJnk0ZhHdjjP7I6luCRKQUQ24oczSBWw7RlAiG4pieIlhute7vKrRjUmzjNfaK3jg+NcNKzm+JoDCkp4rCat2z8ZV4xROJX19yFkc4XR+BH4qfUiTYQWXvWCFXkB4nJi/emftx50RxB4dYVRhZbMXixCLBG8qgZ4XgS+K1U7mrnXgUld/rW1EPOAWxVSSIUREVmyWRMlI/NMLKKsrdBB1MKVSKovFbIPiOIliSJ4k5KghXZIijh1VXAyUFEtBjftvnCQ5xz/aKPvXEE1oWTwSRve1XQoo4OZ6+SH4J8wRx/ljOjEmwYDJXKfd5vFrUc0WXKRSCJDmCK1yZFSsFtjrEotPaAsgbJ0TwH8Dx5gryoeYcwSWuhMUvLUZ3RsTOfIZvTqcCOwdvzuRl85OgZrFx9tBy8Cz4pFZ9BeuViX0pfCEGe+rCJ0GkEeFeS68ZbJrKID5csSG3RldD5bLmGcFqygdIsOI1bBsW0F77TJy9xDsVTqaeMoJz3M53DpXXvDRV6oyZKMZga6dCc3hajRnBC052sarJIn75HDq8mllLgQwg5q2qB8EFMmQ30+jcCGhfUtu6RuvCLJDwIHjCHexSLYwiiCSkaKCsNDsyD4JIN0W21+rxacnWHa8L+2GB4BoXcyWODj/7IsispQiQMv2ptu4EkVZMTWCiDrdPaUMS2ql4WDMpQawJ7+m1+O2P0l+N0daMM84RLGedgagG69Qwr/H3j1gxcy/DTQniQhW6O9QebuW/26P36CXICKLNNI2mqRidGuUyxvbI3IOYCUGsDJUKwwZ0ZXmLGOjgTGoHJgSRjoQsgdSMuiozpGB/5NMTgtoZ3RQVT0kZdc0PZ6y5RpJa8ZhgB5m1ctHd/CKM8fbo+k4Q+V09CnkMAx9eS1KTMUHkbtc/gvVAG9xJas4qFybBIXHL0UAq57jsopsQxFUY3SvwWgCyqiSCO0wIYhvCmGojGBBnPMFrQhCpBQltafwbopzljlgTWugACJW7BDiMDaRhYoLBJ7L1SitaoQCsbIjTq2FEEPscBmioBSHEJ+zddURQr7Y3R1CpjU8DWB8nfrdBRPCKJFitvXkdgnwXEcT2Rddlqf81QbqNCG6RFpFexFABWAvLimMpgRVMkd9TawSzajAEwVlooY32mlIfHAxsUctdWWht88pn0OoPLXjjbAn6/nwDDOjBSMRb6NkLrSl6vCUT1xNbmI6hBK2ZasiMXgI+svAB1mnzu2phboCgc7JG6I3gtOQuob96K9b01g2d5fAlbVFYYGvwE4Ib6x2tTctt5IZgwJCJp4FZyOID69mRZRgrI7ODehbWFG0tLjo3MzvI+sFr02pNpAmYOIIxkAGLGNLmFhTwQzRSYJ0JK3FKzPOboOss7jBA0KodRaAJUzvUCEFBoRoWpqZ3GTmDlqgyGQkTZkyKjRGCmlUIUgT4uuYH8Howxl/D+QlUj1gRAEvGdZlsuGSlwQOHmkouQpkP8PB6EFt0+DHazpgvHFLJjVrceyEF4jCPzbajj5Wy4IhsUfU6yqQapjs+n6a+x8pFHqWOIRzCSgkJjbh51p+IW6xy1c1UerG+lP/zM1XdHe4Pnw4r3OzSr28hAKHQYkTjD5oe9uvnMVcXsfQA8eidvCTpjue7Dem7jy+bUAOXQ6TIKucId/vOcbmfdAqmUqBex+bcLEDns1tJs4TD6x/i+slSOjWVdSCEcZ87odx3Z7frUHC71kLdz+BfFqC2VtinEp2I+S25ZqlvyOa+uNxn1mb3IVM9gPJrNgDFReVFd93F+bRxjISAv/nmdl7UVL9B4qX+ByiyTetFZWjiFHYbLwkT6xAx+kOrC8lNvLVStAWDZPijGO7KAlXitVXUBMEAYMXF2SVYfpCZuu9JG6B6fPoTADO8/34JBxA/KnJULdhftOK8QwDLqSU5eliVRSvxFwBGoFwRO8PrZCrTMH4VHZij7w7hlU6EG7M5NXAArQax4konaL+lUccICGAXZ1qrBq7LlLRt/gJARomVNv1FBNfAHC8h/8qeuQGXIm5zjwiG0DSO01YBZQPm0Gx7PBBLq2bbbyUZ0YQQOpI+6ciJq+7h1d/sH6j7YAMN5if3XMQE4ZUkVKcnGYkdONadtAPEBEN4JQm//LZBoxEKTto2dXuXVG5CMIk1/KLRdF6UdveZeJpnW+ho3NeUtr4nBHXmXkqH6raBUOsig3lGsKuTQ6OzlhpCBPyOOhUX/NkBqtcm5Ezffwk/Oq93vwwJ04VNnF+CVobvPrjUTB/9K+KeSrhPQkC3sr0cHjHcO0Hs/ODXw6OC7jGN5P9uj3rdIkH8xL3XQlYh+CCI72V7LfiTEkH8GKWXAs2imxlB2Y1dNeBvvwS4t/PM1WYE40F2MLCvsPM7ADuscWdkmSC86blhcqFBgK/ayFVePQmCG01+jyBYS+eqdnLTKaHjdV+XYD42nSMYAoMCr0swf9NTfkIscKbFyxIsjH7OEwQq+5cl6OeDmoUpzTCf4lUJOhfZlGZ7BZqj9KoEi/PMi5PSQYL0RQmWCsiLBEEh4BclWLosr3RbAaSK6DUJlgeBlgh2AcXgL0mQOKVgZvnGEEDx4UsS9Mst05VLbdSHXL8iwWrFZ4XgWFlVvCLBauKyeu+S8s11L0hQMGpYcDWYquf7egQJr9bRCgiqXjvxegRFl1iJbq/7VlOG9PhbyRfFik/h9R0igqpl+/S1ki/iwgHhDZJjA3eY/z7Ec1/Ed4BCyoZfBZKreCW3uB7+c4Fu5yiu+5AQ1EqK/0tIL/yW3aQ85v+tdJO0Z0V6F/ZZM2NIkND7VE86tUd+m/lJS5SSHhJa/IT3tzYRDLQEDVt3Uejo8HNq7neSE7S7R42MmossDwIXr1oNpYE1BO2OxoW1ulPhH9CwMQiva8epIwjwDTMw5BCyDzhBr7Z4tZagPQErC2y/OXwCglfv1NQTtD+gVYySLlFlgAcU+Q1OWwNBew4tlGaoknzwHaD9pkacJoJghriBsdA5R15jeXwjQXsO26XlexZhAF6E4jePHWwmaM9dEMN6oVYP4CRJX6FRTIEgUNLQjb6YgbVRNchPdYKRtoDsHP2pxqCLB8mbUg+VEkF7PAN8tUR64VcDupBSHUrUhp2pEbQ7PwAFXHs5bQ0Uo3npZ/QUjV5FgpFvAfh0X0tVQJoD2VF1l6gStIMdQCGKIrBNWADMQu9d+SIkZYLRN6xeHE4c8DTAsXpJLoEYEwCC9kL9IBIHuIYLddeMzyDfHoSg3X3vKw9TYqBG2A/13eFdQA0pIIK2fXaU9YV3Uz4nwbfy+abQK3SABO3xRlmasqni4ItVC8/UJhjXlaruJuqfFHZTOOKquyJ6IPgaOTjBSNb4qhuKWaOGNwr2PWXJ5fY0JrVqELTtK1U1Ggnzdgu58b0aMWVXxeEjHStei6C9WnrqUt3d7MeiVxsPLkzZTyHeRS8gqUcwMvw/lfdpJPn4dHlePweIBeHifDty5cNsEXem66LoErSDqwVwEyl3fW5NL9vD+/byE62qC/HAGP/W9jG1CUZq/4sAoxmUUseJfgAnUjg7RK8pgmDkRO1I64lSzpao+S4oghHF0Ru8/1sdhP+9ISeDIAnGN7H23JaywdSdndATF9AEI4rnjddCA6nTn14NDJQwQDDCcOmYXUbqssPEyDQJMwQji3Lw01fXa/UgvP+5NzU5yhRBO7a7fgC6W4bIKvjcGRw5ZJBgpPwXow3zEXc8O65//B5qXjwthlGCEYLO/OB4Lpwkoczj24HQasXANMEYwWJ/mDG3MslZzo27bLb9GrYxo6YNgjGC8fx72+OMcYdKc36EOvH/6F1O87HRfZlDWwQTdDvr8+5w7Fms77kRkwiOE/9kruv1fdI7Hk7XSactbglaJXhHN1wtJvPzfhRhuYx/7gfzyXjVLrM7/gcaCCATjDg2mAAAAABJRU5ErkJggg==;labelPosition=left;align=right;fontStyle=1" parent="1" vertex="1">
          <mxGeometry x="230" y="603.5" width="49.78" height="50" as="geometry" />
        </mxCell>
        <mxCell id="3t8HU579aE7mR6qAF4_8-25" style="edgeStyle=orthogonalEdgeStyle;rounded=0;orthogonalLoop=1;jettySize=auto;html=1;curved=1;sketch=1;curveFitting=1;jiggle=2;" parent="1" source="E1VSKDTDWRZ0Xt1299cS-23" edge="1">
          <mxGeometry relative="1" as="geometry">
            <mxPoint x="995" y="400" as="targetPoint" />
          </mxGeometry>
        </mxCell>
        <mxCell id="E1VSKDTDWRZ0Xt1299cS-23" value="&lt;font data-font-src=&quot;https://fonts.googleapis.com/css?family=Sour+Gummy&quot; face=&quot;Sour Gummy&quot;&gt;Exporters are&lt;/font&gt;&lt;div&gt;&lt;font data-font-src=&quot;https://fonts.googleapis.com/css?family=Sour+Gummy&quot; face=&quot;Sour Gummy&quot;&gt;reading targets&amp;nbsp;&lt;/font&gt;&lt;div&gt;&lt;font data-font-src=&quot;https://fonts.googleapis.com/css?family=Sour+Gummy&quot; face=&quot;Sour Gummy&quot;&gt;from ConfigMap.&lt;/font&gt;&lt;/div&gt;&lt;/div&gt;" style="text;html=1;align=center;verticalAlign=middle;resizable=0;points=[];autosize=1;strokeColor=default;fillColor=default;rounded=0;glass=0;shadow=0;spacingRight=0;horizontal=1;imageHeight=8;imageWidth=24;sketch=1;curveFitting=1;jiggle=2;" parent="1" vertex="1">
          <mxGeometry x="940" y="280" width="110" height="60" as="geometry" />
        </mxCell>
        <mxCell id="sZsSj0xZG2fliekC-1FZ-3" value="&lt;span style=&quot;text-align: right;&quot;&gt;&lt;font data-font-src=&quot;https://fonts.googleapis.com/css?family=Sour+Gummy&quot; face=&quot;Sour Gummy&quot;&gt;&lt;b&gt;KubePing Exporter&lt;/b&gt;&lt;/font&gt;&lt;/span&gt;&lt;div&gt;&lt;font data-font-src=&quot;https://fonts.googleapis.com/css?family=Sour+Gummy&quot; face=&quot;Sour Gummy&quot;&gt;&lt;span style=&quot;text-align: right; background-color: transparent; color: light-dark(rgb(0, 0, 0), rgb(255, 255, 255));&quot;&gt;deployed as a DaemonSet&lt;/span&gt;&lt;/font&gt;&lt;/div&gt;" style="text;html=1;align=center;verticalAlign=middle;resizable=0;points=[];autosize=1;strokeColor=default;fillColor=default;rounded=0;glass=0;shadow=0;spacingRight=0;horizontal=1;imageHeight=8;imageWidth=24;sketch=1;curveFitting=1;jiggle=2;rotation=-15;" parent="1" vertex="1">
          <mxGeometry x="470" y="450" width="160" height="40" as="geometry" />
        </mxCell>
        <mxCell id="sZsSj0xZG2fliekC-1FZ-12" style="edgeStyle=orthogonalEdgeStyle;rounded=0;orthogonalLoop=1;jettySize=auto;html=1;curved=1;sketch=1;curveFitting=1;jiggle=2;" parent="1" source="sZsSj0xZG2fliekC-1FZ-3" edge="1">
          <mxGeometry relative="1" as="geometry">
            <mxPoint x="710" y="420" as="targetPoint" />
          </mxGeometry>
        </mxCell>
        <mxCell id="sZsSj0xZG2fliekC-1FZ-14" style="edgeStyle=orthogonalEdgeStyle;rounded=0;orthogonalLoop=1;jettySize=auto;html=1;curved=1;sketch=1;curveFitting=1;jiggle=2;exitX=0.022;exitY=0.919;exitDx=0;exitDy=0;exitPerimeter=0;flowAnimation=0;" parent="1" source="sZsSj0xZG2fliekC-1FZ-13" edge="1">
          <mxGeometry relative="1" as="geometry">
            <mxPoint x="260" y="260" as="targetPoint" />
          </mxGeometry>
        </mxCell>
        <mxCell id="sZsSj0xZG2fliekC-1FZ-13" value="&lt;span style=&quot;background-color: rgb(255, 255, 255);&quot;&gt;Visualise&lt;/span&gt;" style="text;html=1;align=center;verticalAlign=middle;resizable=0;points=[];autosize=1;strokeColor=default;fillColor=default;rounded=0;glass=0;shadow=0;spacingRight=0;horizontal=1;imageHeight=8;imageWidth=24;sketch=1;curveFitting=1;jiggle=2;rotation=30;fontFamily=Sour Gummy;fontSource=https%3A%2F%2Ffonts.googleapis.com%2Fcss%3Ffamily%3DSour%2BGummy;" parent="1" vertex="1">
          <mxGeometry x="310" y="210" width="70" height="30" as="geometry" />
        </mxCell>
        <mxCell id="3t8HU579aE7mR6qAF4_8-12" style="edgeStyle=orthogonalEdgeStyle;rounded=0;orthogonalLoop=1;jettySize=auto;html=1;curved=1;sketch=1;curveFitting=1;jiggle=2;" parent="1" source="sZsSj0xZG2fliekC-1FZ-15" edge="1">
          <mxGeometry relative="1" as="geometry">
            <mxPoint x="740" y="510" as="targetPoint" />
            <Array as="points">
              <mxPoint x="765" y="460" />
              <mxPoint x="765" y="511" />
            </Array>
          </mxGeometry>
        </mxCell>
        <mxCell id="sZsSj0xZG2fliekC-1FZ-15" value="&lt;font face=&quot;Sour Gummy&quot;&gt;Discovering &lt;b&gt;KubePing Exporters&lt;/b&gt;&lt;/font&gt;&lt;div&gt;&lt;font face=&quot;Sour Gummy&quot;&gt;and calling them to probe&lt;/font&gt;&lt;/div&gt;&lt;div&gt;&lt;b style=&quot;background-color: transparent; color: light-dark(rgb(0, 0, 0), rgb(255, 255, 255)); font-family: &amp;quot;Sour Gummy&amp;quot;;&quot;&gt;&quot;Some Random Endpoint&quot;&lt;/b&gt;&lt;/div&gt;" style="text;html=1;align=center;verticalAlign=middle;resizable=0;points=[];autosize=1;strokeColor=default;fillColor=default;rounded=0;glass=0;shadow=0;spacingRight=0;horizontal=1;imageHeight=8;imageWidth=24;sketch=1;curveFitting=1;jiggle=2;rotation=-15;" parent="1" vertex="1">
          <mxGeometry x="800" y="440" width="190" height="60" as="geometry" />
        </mxCell>
        <mxCell id="sZsSj0xZG2fliekC-1FZ-23" style="edgeStyle=orthogonalEdgeStyle;rounded=0;orthogonalLoop=1;jettySize=auto;html=1;curved=1;sketch=1;curveFitting=1;jiggle=2;" parent="1" source="sZsSj0xZG2fliekC-1FZ-18" edge="1">
          <mxGeometry relative="1" as="geometry">
            <mxPoint x="260" y="500" as="targetPoint" />
          </mxGeometry>
        </mxCell>
        <mxCell id="sZsSj0xZG2fliekC-1FZ-18" value="&lt;div style=&quot;text-align: right;&quot;&gt;&lt;font face=&quot;Sour Gummy&quot;&gt;&lt;b&gt;Trigger&lt;/b&gt;&lt;/font&gt;&lt;/div&gt;" style="text;html=1;align=center;verticalAlign=middle;resizable=0;points=[];autosize=1;strokeColor=default;fillColor=default;rounded=0;glass=0;shadow=0;spacingRight=0;horizontal=1;imageHeight=8;imageWidth=24;sketch=1;curveFitting=1;jiggle=2;rotation=30;" parent="1" vertex="1">
          <mxGeometry x="330" y="540" width="60" height="30" as="geometry" />
        </mxCell>
        <mxCell id="sZsSj0xZG2fliekC-1FZ-24" value="&lt;div&gt;&lt;span style=&quot;background-color: transparent; color: light-dark(rgb(0, 0, 0), rgb(255, 255, 255)); font-family: &amp;quot;Sour Gummy&amp;quot;;&quot;&gt;🔥&lt;/span&gt;&lt;b style=&quot;background-color: transparent; color: light-dark(rgb(0, 0, 0), rgb(255, 255, 255)); font-family: &amp;quot;Sour Gummy&amp;quot;;&quot;&gt;Endpoint 2&lt;/b&gt;&lt;span style=&quot;background-color: transparent; color: light-dark(rgb(0, 0, 0), rgb(255, 255, 255)); font-family: &amp;quot;Sour Gummy&amp;quot;;&quot;&gt; is not&amp;nbsp;&lt;/span&gt;&lt;/div&gt;&lt;div&gt;&lt;font data-font-src=&quot;https://fonts.googleapis.com/css?family=Sour+Gummy&quot; face=&quot;Sour Gummy&quot;&gt;accessible&lt;/font&gt;&lt;/div&gt;&lt;div&gt;&lt;font data-font-src=&quot;https://fonts.googleapis.com/css?family=Sour+Gummy&quot; face=&quot;Sour Gummy&quot;&gt;by &lt;b&gt;&lt;u&gt;node22&lt;/u&gt;&lt;/b&gt;&lt;/font&gt;&lt;/div&gt;" style="ellipse;shape=cloud;whiteSpace=wrap;html=1;fontSize=12;sketch=1;curveFitting=1;jiggle=2;spacingTop=7;fillColor=#f8cecc;strokeColor=#b85450;" parent="1" vertex="1">
          <mxGeometry x="440" y="600" width="130.38" height="90" as="geometry" />
        </mxCell>
        <mxCell id="sZsSj0xZG2fliekC-1FZ-30" style="edgeStyle=orthogonalEdgeStyle;rounded=0;orthogonalLoop=1;jettySize=auto;html=1;entryX=0.25;entryY=0.25;entryDx=0;entryDy=0;entryPerimeter=0;exitX=1.001;exitY=0.535;exitDx=0;exitDy=0;exitPerimeter=0;curved=1;sketch=1;curveFitting=1;jiggle=2;" parent="1" source="sZsSj0xZG2fliekC-1FZ-18" target="sZsSj0xZG2fliekC-1FZ-24" edge="1">
          <mxGeometry relative="1" as="geometry" />
        </mxCell>
        <mxCell id="3t8HU579aE7mR6qAF4_8-1" value="&lt;span style=&quot;font-family: &amp;quot;Sour Gummy&amp;quot;;&quot;&gt;&lt;b&gt;KubePing Web&lt;/b&gt;&lt;/span&gt;&lt;br style=&quot;padding: 0px; margin: 0px; font-family: &amp;quot;Sour Gummy&amp;quot;;&quot;&gt;&lt;font face=&quot;Sour Gummy&quot;&gt;User-friendly&amp;nbsp;interface&lt;/font&gt;&lt;br style=&quot;padding: 0px; margin: 0px; font-family: &amp;quot;Sour Gummy&amp;quot;;&quot;&gt;&lt;span style=&quot;font-family: &amp;quot;Sour Gummy&amp;quot;;&quot;&gt;for executing instant probes&lt;/span&gt;&lt;br style=&quot;padding: 0px; margin: 0px; font-family: &amp;quot;Sour Gummy&amp;quot;;&quot;&gt;&lt;span style=&quot;font-family: &amp;quot;Sour Gummy&amp;quot;;&quot;&gt;across all nodes at once 💡&lt;/span&gt;" style="text;html=1;align=center;verticalAlign=middle;resizable=0;points=[];autosize=1;strokeColor=default;fillColor=default;rounded=0;glass=0;shadow=0;spacingRight=0;horizontal=1;imageHeight=8;imageWidth=24;sketch=1;curveFitting=1;jiggle=2;rotation=-15;" parent="1" vertex="1">
          <mxGeometry x="790" y="690" width="180" height="70" as="geometry" />
        </mxCell>
        <mxCell id="3t8HU579aE7mR6qAF4_8-3" style="edgeStyle=orthogonalEdgeStyle;rounded=0;orthogonalLoop=1;jettySize=auto;html=1;entryX=0.5;entryY=1;entryDx=0;entryDy=0;entryPerimeter=0;curved=1;strokeWidth=1;sketch=1;curveFitting=1;jiggle=2;" parent="1" source="3t8HU579aE7mR6qAF4_8-1" target="7u1YklxsswCGPDCw1TKW-9" edge="1">
          <mxGeometry relative="1" as="geometry" />
        </mxCell>
        <mxCell id="3t8HU579aE7mR6qAF4_8-4" style="edgeStyle=orthogonalEdgeStyle;rounded=0;orthogonalLoop=1;jettySize=auto;html=1;entryX=0.908;entryY=0.491;entryDx=0;entryDy=0;entryPerimeter=0;flowAnimation=1;endArrow=block;endFill=1;strokeWidth=3;fillColor=#d5e8d4;strokeColor=#82b366;" parent="1" source="E1VSKDTDWRZ0Xt1299cS-6" target="7u1YklxsswCGPDCw1TKW-9" edge="1">
          <mxGeometry relative="1" as="geometry" />
        </mxCell>
        <mxCell id="3t8HU579aE7mR6qAF4_8-17" style="edgeStyle=orthogonalEdgeStyle;rounded=0;orthogonalLoop=1;jettySize=auto;html=1;curved=1;sketch=1;curveFitting=1;jiggle=2;" parent="1" source="3t8HU579aE7mR6qAF4_8-8" edge="1">
          <mxGeometry relative="1" as="geometry">
            <mxPoint x="1080" y="630" as="targetPoint" />
          </mxGeometry>
        </mxCell>
        <mxCell id="3t8HU579aE7mR6qAF4_8-8" value="&lt;font face=&quot;Sour Gummy&quot;&gt;The user&lt;/font&gt;&lt;div&gt;&lt;font face=&quot;Sour Gummy&quot;&gt;is using KubePing Web to check&lt;/font&gt;&lt;br&gt;&lt;div&gt;&lt;div&gt;&lt;div&gt;&lt;div&gt;&lt;font face=&quot;Sour Gummy&quot;&gt;&lt;b&gt;&quot;Some Random Endpoint&quot;&lt;/b&gt;&lt;/font&gt;&lt;/div&gt;&lt;/div&gt;&lt;/div&gt;&lt;/div&gt;&lt;/div&gt;" style="text;html=1;align=center;verticalAlign=middle;resizable=0;points=[];autosize=1;strokeColor=default;fillColor=default;rounded=0;glass=0;shadow=0;spacingRight=0;horizontal=1;imageHeight=8;imageWidth=24;sketch=1;curveFitting=1;jiggle=2;rotation=0;fontSize=12;" parent="1" vertex="1">
          <mxGeometry x="985" y="525" width="190" height="60" as="geometry" />
        </mxCell>
        <mxCell id="3t8HU579aE7mR6qAF4_8-19" style="edgeStyle=orthogonalEdgeStyle;rounded=0;orthogonalLoop=1;jettySize=auto;html=1;curved=1;sketch=1;curveFitting=1;jiggle=2;" parent="1" source="3t8HU579aE7mR6qAF4_8-18" edge="1">
          <mxGeometry relative="1" as="geometry">
            <mxPoint x="590" y="300" as="targetPoint" />
          </mxGeometry>
        </mxCell>
        <mxCell id="3t8HU579aE7mR6qAF4_8-20" style="edgeStyle=orthogonalEdgeStyle;rounded=0;orthogonalLoop=1;jettySize=auto;html=1;curved=1;sketch=1;curveFitting=1;jiggle=2;" parent="1" source="3t8HU579aE7mR6qAF4_8-18" edge="1">
          <mxGeometry relative="1" as="geometry">
            <mxPoint x="880" y="310" as="targetPoint" />
          </mxGeometry>
        </mxCell>
        <mxCell id="3t8HU579aE7mR6qAF4_8-21" style="edgeStyle=orthogonalEdgeStyle;rounded=0;orthogonalLoop=1;jettySize=auto;html=1;curved=1;sketch=1;curveFitting=1;jiggle=2;" parent="1" source="3t8HU579aE7mR6qAF4_8-18" edge="1">
          <mxGeometry relative="1" as="geometry">
            <mxPoint x="740" y="330" as="targetPoint" />
          </mxGeometry>
        </mxCell>
        <mxCell id="3t8HU579aE7mR6qAF4_8-18" value="&lt;font face=&quot;Sour Gummy&quot;&gt;Probes are performed&lt;/font&gt;&lt;div&gt;&lt;font face=&quot;Sour Gummy&quot;&gt;by each node&lt;/font&gt;&lt;/div&gt;" style="text;html=1;align=center;verticalAlign=middle;resizable=0;points=[];autosize=1;strokeColor=default;fillColor=default;rounded=0;glass=0;shadow=0;spacingRight=0;horizontal=1;imageHeight=8;imageWidth=24;sketch=1;curveFitting=1;jiggle=2;" parent="1" vertex="1">
          <mxGeometry x="670.38" y="250" width="140" height="40" as="geometry" />
        </mxCell>
        <mxCell id="3t8HU579aE7mR6qAF4_8-28" style="edgeStyle=orthogonalEdgeStyle;rounded=0;orthogonalLoop=1;jettySize=auto;html=1;curved=1;sketch=1;curveFitting=1;jiggle=2;" parent="1" source="3t8HU579aE7mR6qAF4_8-27" edge="1">
          <mxGeometry relative="1" as="geometry">
            <mxPoint x="480" y="400" as="targetPoint" />
          </mxGeometry>
        </mxCell>
        <mxCell id="3t8HU579aE7mR6qAF4_8-27" value="&lt;span style=&quot;background-color: rgb(255, 255, 255);&quot;&gt;&lt;font data-font-src=&quot;https://fonts.googleapis.com/css?family=Sour+Gummy&quot; face=&quot;Sour Gummy&quot;&gt;Scraping /metrics&lt;/font&gt;&lt;/span&gt;" style="text;html=1;align=center;verticalAlign=middle;resizable=0;points=[];autosize=1;strokeColor=default;fillColor=default;rounded=0;glass=0;shadow=0;spacingRight=0;horizontal=1;imageHeight=8;imageWidth=24;sketch=1;curveFitting=1;jiggle=2;rotation=-15;" parent="1" vertex="1">
          <mxGeometry x="420" y="325" width="120" height="30" as="geometry" />
        </mxCell>
      </root>
    </mxGraphModel>
  </diagram>
  <diagram name="low" id="MG2N_wg6fzhQdfwNPNba">
    <mxGraphModel dx="1434" dy="738" grid="1" gridSize="10" guides="1" tooltips="1" connect="1" arrows="1" fold="1" page="1" pageScale="1" pageWidth="1600" pageHeight="900" math="0" shadow="0">
      <root>
        <mxCell id="H39HT7WLox03s-gFte6k-0" />
        <mxCell id="H39HT7WLox03s-gFte6k-1" parent="H39HT7WLox03s-gFte6k-0" />
        <mxCell id="H39HT7WLox03s-gFte6k-15" value="Endpoint 1" style="outlineConnect=0;fontColor=#232F3E;gradientColor=none;fillColor=#232F3D;strokeColor=none;dashed=0;verticalLabelPosition=top;verticalAlign=bottom;align=center;html=1;fontSize=12;fontStyle=1;aspect=fixed;pointerEvents=1;shape=mxgraph.aws4.traditional_server;labelPosition=center;" parent="H39HT7WLox03s-gFte6k-1" vertex="1">
          <mxGeometry x="562.88" y="150" width="34.61" height="60" as="geometry" />
        </mxCell>
        <mxCell id="H39HT7WLox03s-gFte6k-16" value="Endpoint 2" style="outlineConnect=0;fontColor=#232F3E;gradientColor=none;fillColor=#232F3D;strokeColor=none;dashed=0;verticalLabelPosition=top;verticalAlign=bottom;align=center;html=1;fontSize=12;fontStyle=1;aspect=fixed;pointerEvents=1;shape=mxgraph.aws4.traditional_server;labelPosition=center;" parent="H39HT7WLox03s-gFte6k-1" vertex="1">
          <mxGeometry x="717.9499999999999" y="150" width="34.61" height="60" as="geometry" />
        </mxCell>
        <mxCell id="H39HT7WLox03s-gFte6k-17" value="Endpoint 3" style="outlineConnect=0;fontColor=#232F3E;gradientColor=none;fillColor=#232F3D;strokeColor=none;dashed=0;verticalLabelPosition=top;verticalAlign=bottom;align=center;html=1;fontSize=12;fontStyle=1;aspect=fixed;pointerEvents=1;shape=mxgraph.aws4.traditional_server;labelPosition=center;" parent="H39HT7WLox03s-gFte6k-1" vertex="1">
          <mxGeometry x="877.6999999999999" y="150" width="34.61" height="60" as="geometry" />
        </mxCell>
        <mxCell id="1oj7hvo-OoqrL6S4fV7n-4" style="edgeStyle=orthogonalEdgeStyle;rounded=0;orthogonalLoop=1;jettySize=auto;html=1;strokeWidth=2;flowAnimation=1;fillColor=#dae8fc;strokeColor=#6c8ebf;" edge="1" parent="H39HT7WLox03s-gFte6k-1" source="1oj7hvo-OoqrL6S4fV7n-1" target="H39HT7WLox03s-gFte6k-15">
          <mxGeometry relative="1" as="geometry" />
        </mxCell>
        <mxCell id="1oj7hvo-OoqrL6S4fV7n-5" style="rounded=0;orthogonalLoop=1;jettySize=auto;html=1;strokeWidth=2;flowAnimation=1;fillColor=#dae8fc;strokeColor=#6c8ebf;" edge="1" parent="H39HT7WLox03s-gFte6k-1" source="1oj7hvo-OoqrL6S4fV7n-1" target="H39HT7WLox03s-gFte6k-16">
          <mxGeometry relative="1" as="geometry" />
        </mxCell>
        <mxCell id="1oj7hvo-OoqrL6S4fV7n-6" style="rounded=0;orthogonalLoop=1;jettySize=auto;html=1;strokeWidth=2;flowAnimation=1;fillColor=#dae8fc;strokeColor=#6c8ebf;" edge="1" parent="H39HT7WLox03s-gFte6k-1" source="1oj7hvo-OoqrL6S4fV7n-1" target="H39HT7WLox03s-gFte6k-17">
          <mxGeometry relative="1" as="geometry" />
        </mxCell>
        <mxCell id="1oj7hvo-OoqrL6S4fV7n-1" value="" style="aspect=fixed;sketch=0;html=1;dashed=0;whitespace=wrap;verticalLabelPosition=bottom;verticalAlign=top;fillColor=#2875E2;strokeColor=#ffffff;points=[[0.005,0.63,0],[0.1,0.2,0],[0.9,0.2,0],[0.5,0,0],[0.995,0.63,0],[0.72,0.99,0],[0.5,1,0],[0.28,0.99,0]];shape=mxgraph.kubernetes.icon2;kubernetesLabel=1;prIcon=node" vertex="1" parent="H39HT7WLox03s-gFte6k-1">
          <mxGeometry x="554.15" y="360" width="52.08" height="50" as="geometry" />
        </mxCell>
        <mxCell id="1oj7hvo-OoqrL6S4fV7n-10" style="rounded=0;orthogonalLoop=1;jettySize=auto;html=1;flowAnimation=1;fillColor=#dae8fc;strokeColor=#6c8ebf;strokeWidth=2;" edge="1" parent="H39HT7WLox03s-gFte6k-1" source="1oj7hvo-OoqrL6S4fV7n-2" target="H39HT7WLox03s-gFte6k-15">
          <mxGeometry relative="1" as="geometry" />
        </mxCell>
        <mxCell id="1oj7hvo-OoqrL6S4fV7n-11" style="edgeStyle=orthogonalEdgeStyle;rounded=0;orthogonalLoop=1;jettySize=auto;html=1;strokeWidth=2;flowAnimation=1;fillColor=#dae8fc;strokeColor=#6c8ebf;" edge="1" parent="H39HT7WLox03s-gFte6k-1" source="1oj7hvo-OoqrL6S4fV7n-2" target="H39HT7WLox03s-gFte6k-16">
          <mxGeometry relative="1" as="geometry" />
        </mxCell>
        <mxCell id="1oj7hvo-OoqrL6S4fV7n-12" style="rounded=0;orthogonalLoop=1;jettySize=auto;html=1;strokeWidth=2;flowAnimation=1;fillColor=#dae8fc;strokeColor=#6c8ebf;" edge="1" parent="H39HT7WLox03s-gFte6k-1" source="1oj7hvo-OoqrL6S4fV7n-2" target="H39HT7WLox03s-gFte6k-17">
          <mxGeometry relative="1" as="geometry" />
        </mxCell>
        <mxCell id="1oj7hvo-OoqrL6S4fV7n-2" value="" style="aspect=fixed;sketch=0;html=1;dashed=0;whitespace=wrap;verticalLabelPosition=bottom;verticalAlign=top;fillColor=#2875E2;strokeColor=#ffffff;points=[[0.005,0.63,0],[0.1,0.2,0],[0.9,0.2,0],[0.5,0,0],[0.995,0.63,0],[0.72,0.99,0],[0.5,1,0],[0.28,0.99,0]];shape=mxgraph.kubernetes.icon2;kubernetesLabel=1;prIcon=node" vertex="1" parent="H39HT7WLox03s-gFte6k-1">
          <mxGeometry x="709.21" y="360" width="52.08" height="50" as="geometry" />
        </mxCell>
        <mxCell id="1oj7hvo-OoqrL6S4fV7n-7" style="edgeStyle=orthogonalEdgeStyle;rounded=0;orthogonalLoop=1;jettySize=auto;html=1;strokeWidth=2;flowAnimation=1;fillColor=#dae8fc;strokeColor=#6c8ebf;" edge="1" parent="H39HT7WLox03s-gFte6k-1" source="1oj7hvo-OoqrL6S4fV7n-3" target="H39HT7WLox03s-gFte6k-17">
          <mxGeometry relative="1" as="geometry" />
        </mxCell>
        <mxCell id="1oj7hvo-OoqrL6S4fV7n-8" style="rounded=0;orthogonalLoop=1;jettySize=auto;html=1;strokeWidth=2;flowAnimation=1;fillColor=#dae8fc;strokeColor=#6c8ebf;" edge="1" parent="H39HT7WLox03s-gFte6k-1" source="1oj7hvo-OoqrL6S4fV7n-3" target="H39HT7WLox03s-gFte6k-16">
          <mxGeometry relative="1" as="geometry" />
        </mxCell>
        <mxCell id="1oj7hvo-OoqrL6S4fV7n-9" style="rounded=0;orthogonalLoop=1;jettySize=auto;html=1;strokeWidth=2;flowAnimation=1;fillColor=#dae8fc;strokeColor=#6c8ebf;" edge="1" parent="H39HT7WLox03s-gFte6k-1" source="1oj7hvo-OoqrL6S4fV7n-3" target="H39HT7WLox03s-gFte6k-15">
          <mxGeometry relative="1" as="geometry" />
        </mxCell>
        <mxCell id="1oj7hvo-OoqrL6S4fV7n-3" value="" style="aspect=fixed;sketch=0;html=1;dashed=0;whitespace=wrap;verticalLabelPosition=bottom;verticalAlign=top;fillColor=#2875E2;strokeColor=#ffffff;points=[[0.005,0.63,0],[0.1,0.2,0],[0.9,0.2,0],[0.5,0,0],[0.995,0.63,0],[0.72,0.99,0],[0.5,1,0],[0.28,0.99,0]];shape=mxgraph.kubernetes.icon2;kubernetesLabel=1;prIcon=node" vertex="1" parent="H39HT7WLox03s-gFte6k-1">
          <mxGeometry x="868.96" y="360" width="52.08" height="50" as="geometry" />
        </mxCell>
      </root>
    </mxGraphModel>
  </diagram>
</mxfile>
